<svg width="32" height="32" viewBox="0 0 32 32" fill="none" xmlns="http://www.w3.org/2000/svg">
<path fill-rule="evenodd" clip-rule="evenodd" d="M4 5.26577C4 3.0958 5.76242 1.33337 7.93239 1.33337H17.8985C19.1464 1.33337 20.3288 1.82677 21.2128 2.71051C21.213 2.71069 21.2131 2.71087 21.2133 2.71105L26.3934 7.86302C27.2775 8.74709 27.7711 9.92973 27.7711 11.1779V26.7182C27.7711 28.8882 26.0087 30.6506 23.8387 30.6506H7.93239C5.76242 30.6506 4 28.8882 4 26.7182V5.26577ZM7.93239 2.66671C6.4988 2.66671 5.33333 3.83218 5.33333 5.26577V26.7182C5.33333 28.1518 6.4988 29.3173 7.93239 29.3173H23.8387C25.2723 29.3173 26.4378 28.1518 26.4378 26.7182V11.1779C26.4378 10.2866 26.087 9.4424 25.4511 8.80628C25.4509 8.80613 25.4512 8.80643 25.4511 8.80628L20.2718 3.65515L20.2705 3.65386C19.6343 3.01769 18.79 2.66671 17.8985 2.66671H7.93239Z" fill="#0066B2"/>
<path d="M24.6271 10.5304L18.5742 4.47759C18.2927 4.19606 17.8422 4.39313 17.8422 4.78727V9.5451C17.8422 10.4741 18.6023 11.2624 19.5595 11.2624H24.3174C24.6834 11.2624 24.8804 10.7838 24.6271 10.5304Z" fill="#0066B2"/>
<path fill-rule="evenodd" clip-rule="evenodd" d="M8.5924 18.0238C8.24051 19.4891 8.13509 21.401 8.19987 22.9558C8.21137 23.2317 7.99702 23.4647 7.72112 23.4762C7.44522 23.4877 7.21224 23.2734 7.20074 22.9975C7.13359 21.3858 7.23954 19.3748 7.62004 17.7903C7.80894 17.0037 8.07631 16.2747 8.45882 15.7531C8.85252 15.2163 9.42183 14.8405 10.1574 14.9631C10.9283 15.0916 11.3972 15.5279 11.6812 16.0723C11.9351 16.5589 12.0463 17.1445 12.139 17.6325C12.1426 17.6512 12.1461 17.6697 12.1496 17.6882C12.2531 18.2316 12.34 18.6441 12.5096 18.9315C12.5867 19.0622 12.672 19.1491 12.7714 19.2065C12.8708 19.2639 13.0161 19.3103 13.2417 19.3103C14.1288 19.3103 14.5698 18.842 15.0967 18.2825C15.1617 18.2135 15.228 18.143 15.2966 18.072C15.5871 17.771 15.9644 17.4168 16.4906 17.31C17.0372 17.199 17.6152 17.375 18.269 17.8109C18.2875 17.8232 18.306 17.8355 18.3244 17.8478C18.922 18.2467 19.4776 18.6175 20.2182 18.6175C20.9673 18.6175 22.0345 18.2268 23.5754 16.6859C23.7707 16.4906 24.0873 16.4906 24.2826 16.6859C24.4778 16.8811 24.4778 17.1977 24.2826 17.393C22.6569 19.0186 21.3492 19.6175 20.2182 19.6175C19.1657 19.6175 18.3781 19.0885 17.815 18.7104C17.7806 18.6873 17.7471 18.6647 17.7143 18.6429C17.1693 18.2796 16.8671 18.2539 16.6895 18.29C16.4914 18.3302 16.3005 18.4717 16.0161 18.7664C15.9596 18.825 15.9005 18.8889 15.8381 18.9563C15.3223 19.5142 14.5862 20.3103 13.2417 20.3103C12.8737 20.3103 12.549 20.2329 12.2711 20.0723C11.9932 19.9118 11.794 19.6864 11.6484 19.4398C11.3778 18.9812 11.2658 18.393 11.1725 17.9028C11.1708 17.8936 11.169 17.8844 11.1673 17.8753C11.0643 17.3348 10.9763 16.8831 10.7946 16.5349C10.6334 16.2258 10.4095 16.0189 9.99301 15.9495C9.75249 15.9094 9.52042 15.9965 9.26519 16.3445C8.99878 16.7078 8.7697 17.2854 8.5924 18.0238Z" fill="#0066B2"/>
</svg>
