<svg width="112" height="48" viewBox="0 0 112 48" fill="none" xmlns="http://www.w3.org/2000/svg">
<g clip-path="url(#clip0_101_472)">
<mask id="mask0_101_472" style="mask-type:alpha" maskUnits="userSpaceOnUse" x="0" y="0" width="112" height="48">
<path fill-rule="evenodd" clip-rule="evenodd" d="M0 0H111.591V47.8229H0V0Z" fill="white"/>
</mask>
<g mask="url(#mask0_101_472)">
<path d="M95.8345 36.7335C95.8345 36.9744 95.8172 37.373 95.7828 37.9294C95.7713 38.0499 95.7627 38.1904 95.7569 38.351C95.7512 38.5059 95.7426 38.6779 95.7311 38.8672C95.7253 38.9992 95.7196 39.111 95.7138 39.2028C95.7138 39.2945 95.711 39.3806 95.7052 39.4609C95.7052 39.5412 95.7052 39.6244 95.7052 39.7104C95.7052 39.7907 95.7052 39.8882 95.7052 40.0029H95.6018C95.5559 39.9972 95.5099 39.9943 95.464 39.9943C95.4238 39.9943 95.3807 39.9943 95.3348 39.9943C95.2946 39.9943 95.2515 39.9972 95.2055 40.0029C95.1596 40.0029 95.1108 40.0029 95.0591 40.0029H94.9557C94.9672 39.8538 94.9787 39.7247 94.9901 39.6158C95.0016 39.5068 95.0103 39.4035 95.016 39.306C95.0217 39.2085 95.0275 39.1139 95.0332 39.0221C95.039 38.9246 95.0447 38.8156 95.0505 38.6952L95.0849 37.8262L95.1021 37.4992C95.0332 37.5508 94.97 37.5967 94.9126 37.6369C94.8609 37.6713 94.8064 37.7028 94.7489 37.7315C94.6972 37.7545 94.6369 37.7774 94.568 37.8004C94.4991 37.8233 94.4158 37.8491 94.3181 37.8778L93.8874 37.9982C93.4451 38.1244 93.1292 38.2621 92.9397 38.4112C92.7559 38.5546 92.664 38.7382 92.664 38.9619C92.664 39.1856 92.7473 39.3576 92.9138 39.4781C93.0861 39.5985 93.3302 39.6588 93.6461 39.6588C93.7208 39.6588 93.7897 39.6559 93.8529 39.6502C93.9161 39.6444 93.9793 39.6358 94.0425 39.6244C94.1114 39.6129 94.1832 39.5985 94.2578 39.5813C94.3325 39.5584 94.4187 39.5326 94.5163 39.5039C94.4933 39.5727 94.4732 39.6387 94.456 39.7018C94.4388 39.7592 94.4187 39.8366 94.3957 39.9341L94.3785 40.0115C94.2808 40.0287 94.1947 40.0431 94.12 40.0545C94.0453 40.066 93.9735 40.0746 93.9046 40.0804C93.8414 40.0861 93.7754 40.089 93.7065 40.089C93.6375 40.0947 93.56 40.0976 93.4738 40.0976C92.4745 40.0976 91.9748 39.7161 91.9748 38.9533C91.9748 38.6435 92.0896 38.3825 92.3194 38.1703C92.3998 38.0958 92.4888 38.0298 92.5865 37.9724C92.6841 37.9093 92.8018 37.852 92.9397 37.8004C93.0775 37.743 93.2412 37.6885 93.4308 37.6369C93.6203 37.5795 93.8529 37.5193 94.1286 37.4562C94.479 37.3759 94.7288 37.2755 94.8781 37.1551C95.0332 37.0346 95.1108 36.8826 95.1108 36.6991C95.1108 36.5098 95.0246 36.3635 94.8523 36.2603C94.68 36.1513 94.4388 36.0968 94.1286 36.0968C94.0367 36.0968 93.9448 36.0997 93.8529 36.1054C93.761 36.1112 93.6662 36.1198 93.5686 36.1312C93.471 36.1484 93.3848 36.1656 93.3101 36.1828C93.2355 36.1943 93.1579 36.2115 93.0775 36.2345C93.0029 36.2574 92.9225 36.2832 92.8363 36.3119C92.7501 36.3406 92.6496 36.3779 92.5348 36.4238C92.5405 36.4008 92.5434 36.3836 92.5434 36.3721C92.5434 36.3549 92.5462 36.3406 92.552 36.3291C92.5577 36.3004 92.5606 36.2718 92.5606 36.2431C92.5664 36.2087 92.5721 36.1771 92.5778 36.1484C92.5893 36.137 92.5979 36.0739 92.6037 35.9592L92.6123 35.8731C92.6927 35.8559 92.7588 35.8416 92.8105 35.8301C92.8679 35.8186 92.9167 35.8072 92.9569 35.7957C93.3992 35.6982 93.8156 35.6494 94.2061 35.6494C94.7633 35.6494 95.1739 35.7383 95.4381 35.9161C95.7024 36.0939 95.8345 36.3664 95.8345 36.7335Z" fill="#76787A"/>
<path d="M100.388 37.7659C100.388 37.2612 100.262 36.8712 100.009 36.5958C99.7622 36.3148 99.4147 36.1742 98.9667 36.1742C98.8863 36.1742 98.8059 36.18 98.7255 36.1915C98.6451 36.1972 98.5618 36.2058 98.4756 36.2173C98.3435 36.2402 98.2287 36.2632 98.131 36.2861C98.0391 36.309 97.9099 36.3492 97.7433 36.4065C97.7261 36.5213 97.7175 36.6044 97.7175 36.6561C97.7117 36.7192 97.706 36.8023 97.7003 36.9056C97.6945 37.0088 97.6888 37.1379 97.683 37.2927C97.6658 37.6369 97.6572 37.8807 97.6572 38.0241C97.6572 38.2994 97.6859 38.5259 97.7433 38.7038C97.8065 38.8816 97.907 39.0422 98.0449 39.1856C98.1655 39.3118 98.3091 39.4093 98.4756 39.4781C98.6422 39.5469 98.8145 39.5813 98.9926 39.5813C99.1993 39.5813 99.3889 39.5383 99.5612 39.4523C99.7335 39.3605 99.8799 39.2372 100.001 39.0823C100.121 38.9217 100.216 38.7296 100.285 38.5059C100.354 38.2822 100.388 38.0355 100.388 37.7659ZM101.112 37.7832C101.112 38.1273 101.063 38.4428 100.965 38.7296C100.874 39.0106 100.741 39.2544 100.569 39.4609C100.397 39.6616 100.19 39.8194 99.9489 39.9341C99.7134 40.0431 99.452 40.0976 99.1649 40.0976C98.9351 40.0976 98.7169 40.0632 98.5101 39.9943C98.4067 39.9599 98.3148 39.9226 98.2344 39.8825C98.1597 39.8423 98.0879 39.7936 98.019 39.7362C97.9501 39.6788 97.8812 39.61 97.8123 39.5297C97.7491 39.4494 97.6802 39.3519 97.6055 39.2372L97.5969 39.633L97.571 40.4847L97.5366 41.4828V41.8958H97.1661H96.899H96.7784C96.7956 41.6778 96.81 41.4885 96.8215 41.3279C96.833 41.1673 96.8416 41.0067 96.8473 40.8461C96.8588 40.6912 96.8674 40.522 96.8732 40.3385C96.8847 40.1549 96.8962 39.9312 96.9076 39.6674C96.9249 39.3347 96.9364 39.0106 96.9421 38.6952C96.9536 38.3739 96.9622 38.0699 96.9679 37.7832C96.9794 37.4906 96.988 37.2239 96.9938 36.983C96.9995 36.7364 97.0053 36.5213 97.011 36.3377L97.0196 35.9075C97.1058 35.8846 97.1805 35.8674 97.2436 35.8559C97.3126 35.8444 97.37 35.833 97.4159 35.8215C97.7204 35.7584 97.9874 35.7154 98.2172 35.6924C98.4527 35.6638 98.691 35.6494 98.9323 35.6494C99.3343 35.6494 99.6703 35.701 99.9403 35.8043C100.216 35.9018 100.446 36.0567 100.629 36.2689C100.779 36.441 100.897 36.6618 100.983 36.9314C101.069 37.1952 101.112 37.4792 101.112 37.7832Z" fill="#76787A"/>
<path d="M105.473 37.7659C105.473 37.2612 105.347 36.8712 105.094 36.5958C104.847 36.3148 104.499 36.1742 104.051 36.1742C103.971 36.1742 103.891 36.18 103.81 36.1915C103.73 36.1972 103.646 36.2058 103.56 36.2173C103.428 36.2402 103.313 36.2632 103.216 36.2861C103.124 36.309 102.995 36.3492 102.828 36.4065C102.811 36.5213 102.802 36.6044 102.802 36.6561C102.796 36.7192 102.791 36.8023 102.785 36.9056C102.779 37.0088 102.773 37.1379 102.768 37.2927C102.75 37.6369 102.742 37.8807 102.742 38.0241C102.742 38.2994 102.771 38.5259 102.828 38.7038C102.891 38.8816 102.992 39.0422 103.13 39.1856C103.25 39.3118 103.394 39.4093 103.56 39.4781C103.727 39.5469 103.899 39.5813 104.077 39.5813C104.284 39.5813 104.474 39.5383 104.646 39.4523C104.818 39.3605 104.965 39.2372 105.085 39.0823C105.206 38.9217 105.301 38.7296 105.37 38.5059C105.438 38.2822 105.473 38.0355 105.473 37.7659ZM106.197 37.7832C106.197 38.1273 106.148 38.4428 106.05 38.7296C105.958 39.0106 105.826 39.2544 105.654 39.4609C105.482 39.6616 105.275 39.8194 105.034 39.9341C104.798 40.0431 104.537 40.0976 104.25 40.0976C104.02 40.0976 103.802 40.0632 103.595 39.9943C103.491 39.9599 103.399 39.9226 103.319 39.8825C103.244 39.8423 103.173 39.7936 103.104 39.7362C103.035 39.6788 102.966 39.61 102.897 39.5297C102.834 39.4494 102.765 39.3519 102.69 39.2372L102.682 39.633L102.656 40.4847L102.621 41.4828V41.8958H102.251H101.984H101.863C101.88 41.6778 101.895 41.4885 101.906 41.3279C101.918 41.1673 101.926 41.0067 101.932 40.8461C101.943 40.6912 101.952 40.522 101.958 40.3385C101.969 40.1549 101.981 39.9312 101.992 39.6674C102.01 39.3347 102.021 39.0106 102.027 38.6952C102.038 38.3739 102.047 38.0699 102.053 37.7832C102.064 37.4906 102.073 37.2239 102.078 36.983C102.084 36.7364 102.09 36.5213 102.096 36.3377L102.104 35.9075C102.19 35.8846 102.265 35.8674 102.328 35.8559C102.397 35.8444 102.455 35.833 102.501 35.8215C102.805 35.7584 103.072 35.7154 103.302 35.6924C103.537 35.6638 103.776 35.6494 104.017 35.6494C104.419 35.6494 104.755 35.701 105.025 35.8043C105.301 35.9018 105.53 36.0567 105.714 36.2689C105.863 36.441 105.981 36.6618 106.067 36.9314C106.154 37.1952 106.197 37.4792 106.197 37.7832Z" fill="#76787A"/>
<path d="M109.601 36.3635C109.417 36.2947 109.257 36.2459 109.119 36.2173C108.987 36.1886 108.843 36.1742 108.688 36.1742C108.407 36.1742 108.188 36.223 108.033 36.3205C107.878 36.4123 107.801 36.5471 107.801 36.7249C107.801 36.9027 107.901 37.0834 108.102 37.2669C108.125 37.2899 108.148 37.3128 108.171 37.3358C108.194 37.353 108.223 37.3759 108.257 37.4046C108.292 37.4333 108.335 37.4705 108.386 37.5164C108.444 37.5566 108.516 37.6111 108.602 37.6799C108.832 37.8635 108.995 38.0011 109.093 38.0929C109.409 38.3854 109.567 38.6952 109.567 39.0221C109.567 39.3433 109.432 39.6043 109.162 39.805C108.892 40.0001 108.536 40.0976 108.094 40.0976C108.03 40.0976 107.953 40.0947 107.861 40.089C107.769 40.0832 107.677 40.0746 107.585 40.0632C107.505 40.0574 107.436 40.0488 107.378 40.0373C107.321 40.0316 107.264 40.023 107.206 40.0115C107.154 40.0001 107.1 39.9886 107.042 39.9771C106.985 39.9599 106.916 39.9427 106.836 39.9255L106.827 39.8222L106.81 39.5985L106.784 39.3835L106.775 39.2974C106.942 39.3662 107.071 39.415 107.163 39.4437C107.261 39.4724 107.37 39.501 107.49 39.5297C107.651 39.5641 107.812 39.5813 107.973 39.5813C108.249 39.5813 108.464 39.5268 108.619 39.4179C108.774 39.3089 108.852 39.1569 108.852 38.9619C108.852 38.8013 108.794 38.6636 108.679 38.5489C108.633 38.503 108.582 38.4542 108.524 38.4026C108.467 38.351 108.389 38.285 108.292 38.2047L108.007 37.9724C107.875 37.8692 107.769 37.7832 107.689 37.7143C107.608 37.6398 107.542 37.5767 107.49 37.525C107.215 37.2497 107.077 36.9658 107.077 36.6733C107.077 36.3578 107.206 36.1083 107.465 35.9247C107.723 35.7412 108.076 35.6494 108.524 35.6494C108.679 35.6494 108.837 35.658 108.998 35.6752C109.159 35.6924 109.349 35.7211 109.567 35.7613V35.8473C109.567 35.9333 109.567 36.0108 109.567 36.0796C109.573 36.1427 109.581 36.2087 109.593 36.2775L109.601 36.3635Z" fill="#76787A"/>
<path fill-rule="evenodd" clip-rule="evenodd" d="M18.2382 32.9198C18.2318 32.0377 18.1987 31.271 18.1375 30.6212C19.107 31.0849 19.9817 31.4123 20.7607 31.603C21.5401 31.7936 22.2924 31.8891 23.0184 31.8891C23.7162 31.8891 24.3692 31.7705 24.9768 31.5337C25.5857 31.2968 26.0487 30.9622 26.3661 30.5302C26.6831 30.0987 26.8517 29.6042 26.8708 29.0458C26.8826 28.7216 26.8418 28.4168 26.7497 28.1338C26.6568 27.8499 26.5026 27.5628 26.2845 27.2694C26.0668 26.9768 25.685 26.582 25.1405 26.0848C24.595 25.5885 23.8209 24.9029 22.8184 24.0298L21.8167 23.1522C21.4386 22.8176 21.0962 22.4852 20.7911 22.1556C20.4863 21.8264 20.232 21.5103 20.0293 21.2082C19.8257 20.9067 19.6706 20.6322 19.5627 20.3859C19.4548 20.14 19.3736 19.8656 19.3192 19.564C19.2652 19.262 19.243 18.9531 19.2539 18.6375C19.282 17.8383 19.5264 17.0907 19.9885 16.3942C20.4496 15.6973 21.1275 15.1399 22.0212 14.7219C22.9145 14.3039 24.0826 14.0947 25.5236 14.0947C26.5575 14.0947 27.8221 14.2337 29.3189 14.5131C29.3167 15.1113 29.3561 15.8454 29.4373 16.7148C28.0316 16.2126 26.7475 15.9622 25.5844 15.9622C24.7845 15.9622 24.1102 16.0935 23.5611 16.3571C23.0129 16.6206 22.5917 16.958 22.2983 17.3691C22.0049 17.7803 21.8503 18.2033 21.8353 18.6375C21.8263 18.8974 21.8548 19.1506 21.9201 19.3969C21.9863 19.6433 22.0897 19.8774 22.2307 20.1006C22.433 20.4257 22.6869 20.7531 22.9916 21.0828C23.2963 21.4129 23.7198 21.815 24.2608 22.2882C24.3964 22.3996 24.9137 22.8357 25.8129 23.5983C26.7116 24.3595 27.3659 24.9491 27.774 25.3675C28.1835 25.7854 28.5068 26.174 28.7458 26.5313C28.9838 26.889 29.1657 27.2744 29.2904 27.6878C29.4155 28.1008 29.4704 28.5491 29.4531 29.0322C29.4273 29.7758 29.2427 30.4609 28.8999 31.0872C28.5571 31.7153 28.0783 32.2283 27.4648 32.6273C26.8504 33.0267 26.1729 33.3097 25.4325 33.4768C24.6916 33.6448 23.9216 33.7281 23.1217 33.7281C22.4797 33.7281 21.8185 33.6796 21.1384 33.5818C20.4582 33.4845 19.491 33.2639 18.2382 32.9198Z" fill="#FEFEFE"/>
<path fill-rule="evenodd" clip-rule="evenodd" d="M35.4362 33.4218L35.9708 28.1826L36.7062 18.387L36.8228 16.2546C36.8509 15.7162 36.8776 15.0981 36.9012 14.4016C39.002 14.4111 41.155 14.4152 43.3587 14.4152L47.8088 14.4016H49.2312C49.1432 15.0473 49.0788 15.6972 49.0371 16.3524L47.7983 16.2827C47.4918 16.2636 46.964 16.2501 46.2154 16.241C45.4676 16.232 44.7249 16.2265 43.9908 16.2265C41.7952 16.2265 40.2649 16.241 39.3988 16.2686L38.9177 22.7898C40.3492 22.8179 41.6329 22.8315 42.7679 22.8315C44.0053 22.8315 45.6295 22.8129 47.6405 22.7758C47.553 23.4261 47.4882 24.0673 47.4478 24.6985L42.6472 24.6573C41.7077 24.6573 40.3995 24.6763 38.7232 24.7135L38.2294 31.5969L39.6808 31.6105C42.3153 31.6105 44.0624 31.601 44.9244 31.5824C45.786 31.5639 46.7949 31.5227 47.9511 31.457C47.8618 32.1444 47.7974 32.7992 47.7566 33.4218C45.5157 33.4028 43.6226 33.3938 42.0786 33.3938L35.4362 33.4218Z" fill="#FEFEFE"/>
<path fill-rule="evenodd" clip-rule="evenodd" d="M54.3961 33.4218C54.6927 31.025 54.9779 28.0966 55.2518 24.636C55.5261 21.176 55.7406 17.7643 55.8956 14.4016C56.5377 14.4111 57.0256 14.4152 57.3612 14.4152L58.6603 14.4016L57.9058 23.2291L57.2805 31.5544L59.9304 31.568C61.9028 31.568 63.2904 31.5621 64.0966 31.5476C64.9005 31.534 65.6809 31.5037 66.4364 31.457C66.3593 32.0461 66.2899 32.7009 66.2273 33.4218C64.1165 33.4028 62.2515 33.3938 60.6337 33.3938L54.3961 33.4218Z" fill="#FEFEFE"/>
<path fill-rule="evenodd" clip-rule="evenodd" d="M71.3878 33.4218L71.7083 30.2167L72.2334 23.5429L72.6588 16.9651C72.681 16.5847 72.6996 16.2039 72.7127 15.823L72.7481 14.4016L74.1864 14.4152L75.5413 14.4016C75.2923 16.7237 75.0824 19.1482 74.911 21.6754C74.6212 25.7251 74.3768 29.6412 74.1801 33.4218L72.8687 33.3938C72.7009 33.3938 72.208 33.4028 71.3878 33.4218Z" fill="#FEFEFE"/>
<path fill-rule="evenodd" clip-rule="evenodd" d="M80.5974 32.9198C80.5911 32.0377 80.5575 31.271 80.4963 30.6212C81.4662 31.0849 82.3405 31.4123 83.1204 31.603C83.8998 31.7936 84.6516 31.8891 85.3771 31.8891C86.075 31.8891 86.7279 31.7705 87.336 31.5337C87.9445 31.2968 88.4079 30.9622 88.7249 30.5302C89.0419 30.0987 89.2101 29.6042 89.2296 29.0458C89.2418 28.7216 89.2006 28.4168 89.1085 28.1338C89.016 27.8499 88.8614 27.5628 88.6433 27.2694C88.4256 26.9768 88.0447 26.582 87.4993 26.0848C86.9538 25.5885 86.1797 24.9029 85.1781 24.0298L84.1764 23.1522C83.7974 22.8176 83.4555 22.4852 83.1508 22.1556C82.846 21.8264 82.5908 21.5103 82.3881 21.2082C82.1845 20.9067 82.0294 20.6322 81.9224 20.3859C81.8136 20.14 81.7328 19.8656 81.6789 19.564C81.624 19.262 81.6018 18.9531 81.6131 18.6375C81.6408 17.8383 81.8852 17.0907 82.3473 16.3942C82.8089 15.6973 83.4863 15.1399 84.38 14.7219C85.2738 14.3039 86.4418 14.0947 87.8833 14.0947C88.9163 14.0947 90.1809 14.2337 91.6777 14.5131C91.6759 15.1113 91.7149 15.8454 91.7961 16.7148C90.3908 16.2126 89.1067 15.9622 87.9436 15.9622C87.1442 15.9622 86.469 16.0935 85.9208 16.3571C85.3717 16.6206 84.9514 16.958 84.6571 17.3691C84.3642 17.7803 84.2091 18.2033 84.1941 18.6375C84.1851 18.8974 84.2136 19.1506 84.2789 19.3969C84.3456 19.6433 84.449 19.8774 84.59 20.1006C84.7918 20.4257 85.0461 20.7531 85.3504 21.0828C85.6551 21.4129 86.0786 21.815 86.6205 22.2882C86.7561 22.3996 87.2734 22.8357 88.1722 23.5983C89.0704 24.3595 89.7247 24.9491 90.1328 25.3675C90.5423 25.7854 90.8656 26.174 91.1046 26.5313C91.3426 26.889 91.5244 27.2744 91.6501 27.6878C91.7747 28.1008 91.8292 28.5491 91.8119 29.0322C91.7865 29.7758 91.6024 30.4609 91.2587 31.0872C90.9159 31.7153 90.4375 32.2283 89.824 32.6273C89.2092 33.0267 88.5317 33.3097 87.7913 33.4768C87.0508 33.6448 86.2804 33.7281 85.481 33.7281C84.8389 33.7281 84.1778 33.6796 83.4976 33.5818C82.817 33.4845 81.8507 33.2639 80.5974 32.9198Z" fill="#FEFEFE"/>
<path fill-rule="evenodd" clip-rule="evenodd" d="M97.7954 33.4218L98.3296 28.1826L99.0655 18.387L99.1816 16.2546C99.2097 15.7162 99.2364 15.0981 99.2609 14.4016C101.362 14.4111 103.514 14.4152 105.718 14.4152L110.168 14.4016H111.591C111.503 15.0473 111.439 15.6972 111.397 16.3524L110.157 16.2827C109.851 16.2636 109.324 16.2501 108.574 16.241C107.826 16.232 107.085 16.2265 106.35 16.2265C104.154 16.2265 102.624 16.241 101.758 16.2686L101.277 22.7898C102.708 22.8179 103.992 22.8315 105.128 22.8315C106.365 22.8315 107.989 22.8129 110 22.7758C109.912 23.4261 109.848 24.0673 109.806 24.6985L105.006 24.6573C104.066 24.6573 102.758 24.6763 101.083 24.7135L100.589 31.5969L102.04 31.6105C104.674 31.6105 106.422 31.601 107.284 31.5824C108.145 31.5639 109.154 31.5227 110.31 31.457C110.221 32.1444 110.156 32.7992 110.115 33.4218C107.875 33.4028 105.982 33.3938 104.438 33.3938L97.7954 33.4218Z" fill="#FEFEFE"/>
<path fill-rule="evenodd" clip-rule="evenodd" d="M18.2382 32.9198C18.2318 32.0377 18.1987 31.271 18.1375 30.6212C19.107 31.0849 19.9817 31.4123 20.7607 31.603C21.5401 31.7936 22.2924 31.8891 23.0184 31.8891C23.7162 31.8891 24.3692 31.7705 24.9768 31.5337C25.5857 31.2968 26.0487 30.9622 26.3661 30.5302C26.6831 30.0987 26.8517 29.6042 26.8708 29.0458C26.8826 28.7216 26.8418 28.4168 26.7497 28.1338C26.6568 27.8499 26.5026 27.5628 26.2845 27.2694C26.0668 26.9768 25.685 26.582 25.1405 26.0848C24.595 25.5885 23.8209 24.9029 22.8184 24.0298L21.8167 23.1522C21.4386 22.8176 21.0962 22.4852 20.7911 22.1556C20.4863 21.8264 20.232 21.5103 20.0293 21.2082C19.8257 20.9067 19.6706 20.6322 19.5627 20.3859C19.4548 20.14 19.3736 19.8656 19.3192 19.564C19.2652 19.262 19.243 18.9531 19.2539 18.6375C19.282 17.8383 19.5264 17.0907 19.9885 16.3942C20.4496 15.6973 21.1275 15.1399 22.0212 14.7219C22.9145 14.3039 24.0826 14.0947 25.5236 14.0947C26.5575 14.0947 27.8221 14.2337 29.3189 14.5131C29.3167 15.1113 29.3561 15.8454 29.4373 16.7148C28.0316 16.2126 26.7475 15.9622 25.5844 15.9622C24.7845 15.9622 24.1102 16.0935 23.5611 16.3571C23.0129 16.6206 22.5917 16.958 22.2983 17.3691C22.0049 17.7803 21.8503 18.2033 21.8353 18.6375C21.8263 18.8974 21.8548 19.1506 21.9201 19.3969C21.9863 19.6433 22.0897 19.8774 22.2307 20.1006C22.433 20.4257 22.6869 20.7531 22.9916 21.0828C23.2963 21.4129 23.7198 21.815 24.2608 22.2882C24.3964 22.3996 24.9137 22.8357 25.8129 23.5983C26.7116 24.3595 27.3659 24.9491 27.774 25.3675C28.1835 25.7854 28.5068 26.174 28.7458 26.5313C28.9838 26.889 29.1657 27.2744 29.2904 27.6878C29.4155 28.1008 29.4704 28.5491 29.4531 29.0322C29.4273 29.7758 29.2427 30.4609 28.8999 31.0872C28.5571 31.7153 28.0783 32.2283 27.4648 32.6273C26.8504 33.0267 26.1729 33.3097 25.4325 33.4768C24.6916 33.6448 23.9216 33.7281 23.1217 33.7281C22.4797 33.7281 21.8185 33.6796 21.1384 33.5818C20.4582 33.4845 19.491 33.2639 18.2382 32.9198Z" fill="#0066B2"/>
<path fill-rule="evenodd" clip-rule="evenodd" d="M35.4362 33.4218L35.9708 28.1826L36.7062 18.387L36.8228 16.2546C36.8509 15.7162 36.8776 15.0981 36.9012 14.4016C39.002 14.4111 41.155 14.4152 43.3587 14.4152L47.8088 14.4016H49.2312C49.1432 15.0473 49.0788 15.6972 49.0371 16.3524L47.7983 16.2827C47.4918 16.2636 46.964 16.2501 46.2154 16.241C45.4676 16.232 44.7249 16.2265 43.9908 16.2265C41.7952 16.2265 40.2649 16.241 39.3988 16.2686L38.9177 22.7898C40.3492 22.8179 41.6329 22.8315 42.7679 22.8315C44.0053 22.8315 45.6295 22.8129 47.6405 22.7758C47.553 23.4261 47.4882 24.0673 47.4478 24.6985L42.6472 24.6573C41.7077 24.6573 40.3995 24.6763 38.7232 24.7135L38.2294 31.5969L39.6808 31.6105C42.3153 31.6105 44.0624 31.601 44.9244 31.5824C45.786 31.5639 46.7949 31.5227 47.9511 31.457C47.8618 32.1444 47.7974 32.7992 47.7566 33.4218C45.5157 33.4028 43.6226 33.3938 42.0786 33.3938L35.4362 33.4218Z" fill="#0066B2"/>
<path fill-rule="evenodd" clip-rule="evenodd" d="M54.3961 33.4218C54.6927 31.025 54.9779 28.0966 55.2518 24.636C55.5261 21.176 55.7406 17.7643 55.8956 14.4016C56.5377 14.4111 57.0256 14.4152 57.3612 14.4152L58.6603 14.4016L57.9058 23.2291L57.2805 31.5544L59.9304 31.568C61.9028 31.568 63.2904 31.5621 64.0966 31.5476C64.9005 31.534 65.6809 31.5037 66.4364 31.457C66.3593 32.0461 66.2899 32.7009 66.2273 33.4218C64.1165 33.4028 62.2515 33.3938 60.6337 33.3938L54.3961 33.4218Z" fill="#0066B2"/>
<path fill-rule="evenodd" clip-rule="evenodd" d="M71.3878 33.4218L71.7083 30.2167L72.2334 23.5429L72.6588 16.9651C72.681 16.5847 72.6996 16.2039 72.7127 15.823L72.7481 14.4016L74.1864 14.4152L75.5413 14.4016C75.2923 16.7237 75.0824 19.1482 74.911 21.6754C74.6212 25.7251 74.3768 29.6412 74.1801 33.4218L72.8687 33.3938C72.7009 33.3938 72.208 33.4028 71.3878 33.4218Z" fill="#0066B2"/>
<path fill-rule="evenodd" clip-rule="evenodd" d="M80.5974 32.9198C80.5911 32.0377 80.5575 31.271 80.4963 30.6212C81.4662 31.0849 82.3405 31.4123 83.1204 31.603C83.8998 31.7936 84.6516 31.8891 85.3771 31.8891C86.075 31.8891 86.7279 31.7705 87.336 31.5337C87.9445 31.2968 88.4079 30.9622 88.7249 30.5302C89.0419 30.0987 89.2101 29.6042 89.2296 29.0458C89.2418 28.7216 89.2006 28.4168 89.1085 28.1338C89.016 27.8499 88.8614 27.5628 88.6433 27.2694C88.4256 26.9768 88.0447 26.582 87.4993 26.0848C86.9538 25.5885 86.1797 24.9029 85.1781 24.0298L84.1764 23.1522C83.7974 22.8176 83.4555 22.4852 83.1508 22.1556C82.846 21.8264 82.5908 21.5103 82.3881 21.2082C82.1845 20.9067 82.0294 20.6322 81.9224 20.3859C81.8136 20.14 81.7328 19.8656 81.6789 19.564C81.624 19.262 81.6018 18.9531 81.6131 18.6375C81.6408 17.8383 81.8852 17.0907 82.3473 16.3942C82.8089 15.6973 83.4863 15.1399 84.38 14.7219C85.2738 14.3039 86.4418 14.0947 87.8833 14.0947C88.9163 14.0947 90.1809 14.2337 91.6777 14.5131C91.6759 15.1113 91.7149 15.8454 91.7961 16.7148C90.3908 16.2126 89.1067 15.9622 87.9436 15.9622C87.1442 15.9622 86.469 16.0935 85.9208 16.3571C85.3717 16.6206 84.9514 16.958 84.6571 17.3691C84.3642 17.7803 84.2091 18.2033 84.1941 18.6375C84.1851 18.8974 84.2136 19.1506 84.2789 19.3969C84.3456 19.6433 84.449 19.8774 84.59 20.1006C84.7918 20.4257 85.0461 20.7531 85.3504 21.0828C85.6551 21.4129 86.0786 21.815 86.6205 22.2882C86.7561 22.3996 87.2734 22.8357 88.1722 23.5983C89.0704 24.3595 89.7247 24.9491 90.1328 25.3675C90.5423 25.7854 90.8656 26.174 91.1046 26.5313C91.3426 26.889 91.5244 27.2744 91.6501 27.6878C91.7747 28.1008 91.8292 28.5491 91.8119 29.0322C91.7865 29.7758 91.6024 30.4609 91.2587 31.0872C90.9159 31.7153 90.4375 32.2283 89.824 32.6273C89.2092 33.0267 88.5317 33.3097 87.7913 33.4768C87.0508 33.6448 86.2804 33.7281 85.481 33.7281C84.8389 33.7281 84.1778 33.6796 83.4976 33.5818C82.817 33.4845 81.8507 33.2639 80.5974 32.9198Z" fill="#0066B2"/>
<path fill-rule="evenodd" clip-rule="evenodd" d="M97.7954 33.4218L98.3296 28.1826L99.0655 18.387L99.1816 16.2546C99.2097 15.7162 99.2364 15.0981 99.2609 14.4016C101.362 14.4111 103.514 14.4152 105.718 14.4152L110.168 14.4016H111.591C111.503 15.0473 111.439 15.6972 111.397 16.3524L110.157 16.2827C109.851 16.2636 109.324 16.2501 108.574 16.241C107.826 16.232 107.085 16.2265 106.35 16.2265C104.154 16.2265 102.624 16.241 101.758 16.2686L101.277 22.7898C102.708 22.8179 103.992 22.8315 105.128 22.8315C106.365 22.8315 107.989 22.8129 110 22.7758C109.912 23.4261 109.848 24.0673 109.806 24.6985L105.006 24.6573C104.066 24.6573 102.758 24.6763 101.083 24.7135L100.589 31.5969L102.04 31.6105C104.674 31.6105 106.422 31.601 107.284 31.5824C108.145 31.5639 109.154 31.5227 110.31 31.457C110.221 32.1444 110.156 32.7992 110.115 33.4218C107.875 33.4028 105.982 33.3938 104.438 33.3938L97.7954 33.4218Z" fill="#0066B2"/>
<path fill-rule="evenodd" clip-rule="evenodd" d="M25.3059 46.5937C23.8105 46.5937 22.3495 46.4456 20.9343 46.1712C20.9234 46.0716 20.9148 45.9783 20.9003 45.8701C20.888 45.7777 20.8676 45.6717 20.8518 45.5735C21.1143 45.5744 21.3741 45.5807 21.643 45.5712C22.5313 45.5377 23.4155 45.4517 24.2712 45.3013C25.1264 45.1528 25.9539 44.9499 26.7306 44.7036C27.3927 44.4944 28.008 44.249 28.587 43.9913C28.7825 44.4727 28.9602 44.9459 29.108 45.4023C29.1996 45.6853 29.2794 45.9602 29.3529 46.2305C28.0388 46.4647 26.688 46.5937 25.3059 46.5937ZM17.9225 45.3679C18.7419 45.4838 19.6148 45.5563 20.5262 45.5739C20.538 45.6133 20.552 45.655 20.5634 45.6935C20.6078 45.8452 20.6459 45.9874 20.6817 46.1255C19.7386 45.9317 18.819 45.674 17.9225 45.3679ZM14.3875 43.8224C14.0325 43.629 13.6838 43.4248 13.3405 43.2133C13.3378 43.202 13.3342 43.1902 13.3314 43.1789C14.129 43.3293 15.0083 43.4465 15.9723 43.5022C17.1086 43.5606 18.3529 43.5249 19.661 43.3682C19.7417 43.5357 19.8175 43.701 19.8891 43.8636C19.9793 44.0669 20.0601 44.2639 20.1362 44.4577C18.9573 44.4373 17.8083 44.3508 16.7341 44.2105C15.9015 44.1036 15.1175 43.9687 14.3875 43.8224ZM12.6971 41.4582C13.1678 41.4554 13.6602 41.4346 14.1912 41.3911C14.5267 41.3531 14.8763 41.3232 15.2318 41.2634C15.4105 41.2358 15.5919 41.2096 15.7746 41.1779C15.9573 41.1421 16.1432 41.1054 16.3305 41.0683C16.4244 41.0497 16.5187 41.0307 16.6139 41.0108C16.7082 40.9886 16.803 40.9655 16.8987 40.9428C17.0896 40.8957 17.2832 40.8482 17.4786 40.8002C17.6709 40.7472 17.8645 40.6893 18.0608 40.6327C18.4277 41.1684 18.7582 41.6973 19.0521 42.213C18.7451 42.2529 18.4381 42.2932 18.1352 42.3199C17.7366 42.3656 17.3408 42.3842 16.9526 42.4141C16.7581 42.4272 16.5658 42.4299 16.3749 42.4385C16.1836 42.4471 15.9945 42.4562 15.8072 42.4548C15.62 42.4571 15.4345 42.4594 15.2513 42.4616C15.069 42.4585 14.8877 42.4553 14.7099 42.4521C14.6206 42.4508 14.5312 42.4508 14.4437 42.4471C14.3562 42.4435 14.2687 42.439 14.1821 42.4349C14.0089 42.4259 13.8379 42.4227 13.6697 42.41C13.4657 42.3973 13.2743 42.3783 13.0789 42.3616C12.9714 42.0672 12.8494 41.7674 12.6971 41.4582ZM10.881 38.8417C11.3925 38.508 11.9729 38.1222 12.6168 37.682C13.1941 37.2862 13.823 36.8461 14.4913 36.3647C15.488 37.3818 16.4162 38.4274 17.2179 39.4725C17.2202 39.4752 17.222 39.4784 17.2242 39.4811C17.1444 39.5101 17.0646 39.5386 16.9839 39.5635C16.7917 39.626 16.6008 39.6885 16.4117 39.7496L16.2697 39.7963L16.1283 39.837C16.0335 39.8651 15.9396 39.8923 15.8462 39.9199C15.4735 40.0354 15.1035 40.1237 14.7448 40.2197C14.5644 40.2618 14.3861 40.303 14.2107 40.3438C14.1232 40.3632 14.0361 40.3854 13.9486 40.4035C13.862 40.4207 13.7754 40.4375 13.6901 40.4542C13.1922 40.5584 12.7243 40.6304 12.2736 40.6911C11.9013 40.0761 11.4374 39.4521 10.881 38.8417ZM11.8832 42.2348C11.4959 41.9531 11.1146 41.6628 10.7459 41.3581C11.0162 41.3911 11.3123 41.4156 11.6215 41.4342C11.6306 41.4464 11.6406 41.4586 11.6496 41.4708C11.8383 41.7371 12.006 42.0029 12.1629 42.2674C12.0704 42.2565 11.9729 42.2465 11.8832 42.2348ZM9.17747 39.9348C9.38651 39.8017 9.64134 39.6405 9.93562 39.4526C10.3727 39.8945 10.7845 40.3514 11.1549 40.8147C11.0801 40.821 10.9976 40.8296 10.9255 40.836C10.6611 40.85 10.4126 40.8668 10.1814 40.8699C9.83859 40.567 9.50168 40.2573 9.17747 39.9348ZM8.3386 39.0527C8.43382 38.8186 8.5422 38.5596 8.66463 38.2784C8.89044 38.4695 9.11671 38.6687 9.34297 38.8775C9.4713 38.997 9.59463 39.1207 9.71933 39.2429C9.46722 39.4698 9.25138 39.665 9.07318 39.828C8.82242 39.5748 8.57711 39.3172 8.3386 39.0527ZM8.25834 38.1964C8.20438 38.4097 8.15768 38.6058 8.1137 38.7933C7.90829 38.5591 7.7065 38.3214 7.51107 38.0791C7.49021 37.845 7.47162 37.5973 7.4553 37.3365C7.73915 37.5389 8.02573 37.7599 8.31276 37.9927C8.29462 38.0601 8.27512 38.1312 8.25834 38.1964ZM7.40542 34.7124C7.41313 34.293 7.4358 33.8556 7.46165 33.401C7.49475 32.9468 7.52966 32.4754 7.58453 31.9895C7.63033 31.5607 7.69154 31.1151 7.76001 30.6641C8.02981 30.8533 8.30097 31.0435 8.57893 31.2473C9.12668 31.6503 9.69258 32.0905 10.2653 32.5501C10.2344 32.6198 10.2022 32.6909 10.1719 32.7598C10.0757 32.9717 9.98686 33.1836 9.90026 33.3924C9.81455 33.6016 9.72613 33.8058 9.64633 34.0096C9.32166 34.8228 9.04778 35.5918 8.81562 36.295C8.75123 36.4933 8.69138 36.6853 8.63425 36.8728C8.23023 36.5934 7.81805 36.3511 7.40497 36.1315C7.39544 35.6846 7.39363 35.2132 7.40542 34.7124ZM6.47587 36.6944C6.56202 36.746 6.64681 36.7927 6.73387 36.8484C6.80688 36.8941 6.88124 36.9475 6.9547 36.996C6.981 37.159 7.0073 37.3197 7.0345 37.4733C6.84225 37.2183 6.65724 36.9575 6.47587 36.6944ZM5.91405 35.2145C5.72134 34.3478 5.53407 33.3706 5.37763 32.2924C5.22936 31.265 5.1169 30.1419 5.05614 28.941C5.60254 29.2512 6.17705 29.6031 6.77967 29.9988C6.5661 32.0443 6.60419 33.9281 6.76199 35.5089C6.77287 35.6171 6.78557 35.719 6.79781 35.8245C6.52348 35.7 6.2505 35.5899 5.98025 35.4962C5.95804 35.402 5.93582 35.3114 5.91405 35.2145ZM2.8311 27.8601C3.24056 28.0154 3.68221 28.2142 4.15379 28.4533C4.18417 28.8206 4.22 29.181 4.2608 29.5342C4.4313 30.9376 4.67842 32.2308 4.96137 33.3887C5.09468 33.933 5.23389 34.4452 5.37582 34.9279C4.15923 32.7652 3.28817 30.3851 2.8311 27.8601ZM2.45928 23.7806C2.45928 22.2414 2.61436 20.7385 2.90501 19.2849C3.15668 19.3465 3.41559 19.4167 3.68403 19.505C4.03862 19.6209 4.40863 19.7617 4.78906 19.9198C4.77229 19.9841 4.7546 20.0484 4.74055 20.1127C4.69293 20.3214 4.64578 20.5297 4.59817 20.7376C4.55191 20.945 4.51655 21.1542 4.47574 21.3611C4.45578 21.4653 4.43674 21.5681 4.41679 21.6722L4.36872 21.9824C4.33789 22.1893 4.30161 22.3949 4.27667 22.601C4.16694 23.4228 4.10573 24.2348 4.07127 25.0277C4.04134 25.8219 4.05041 26.5976 4.08079 27.3502C4.0885 27.5069 4.10165 27.6577 4.11162 27.8117C3.63007 27.6419 3.17436 27.5087 2.75221 27.4173C2.56176 26.2327 2.45928 25.0186 2.45928 23.7806ZM6.07684 11.4645C6.65996 11.7611 7.35509 12.1297 8.14498 12.5703C8.06336 12.6885 7.9822 12.8067 7.89967 12.9258C7.65345 13.2754 7.43444 13.6481 7.20409 14.0194C7.09028 14.2059 6.98871 14.4011 6.87943 14.5936C6.82547 14.69 6.77196 14.7869 6.718 14.8843C6.66359 14.9807 6.61643 15.0822 6.56565 15.1818C6.46589 15.3815 6.36568 15.5812 6.26638 15.7804C6.17478 15.9833 6.08319 16.1866 5.9925 16.389C5.89818 16.5901 5.81838 16.7966 5.7363 17.0017L5.61342 17.3092L5.55266 17.4627L5.49734 17.6185C5.42434 17.8259 5.35088 18.0328 5.27833 18.2388C5.20895 18.4462 5.14728 18.6555 5.08199 18.8633C5.0507 18.9665 5.01669 19.0702 4.98722 19.1744C4.97498 19.2215 4.96228 19.2681 4.94913 19.3152C4.25899 19.0988 3.60649 18.9502 2.99706 18.8624C3.58518 16.1893 4.6417 13.6952 6.07684 11.4645ZM11.466 5.62934C11.5227 5.647 11.5757 5.66194 11.6338 5.68096C11.9956 5.78466 12.3801 5.93636 12.7946 6.08036C12.8458 6.09938 12.8993 6.11523 12.951 6.13651C13.0027 6.15825 13.0548 6.17998 13.1084 6.20126C13.2135 6.24428 13.3206 6.2873 13.4298 6.33168C13.5387 6.37515 13.6493 6.41862 13.7613 6.46345C13.8175 6.48564 13.8742 6.50783 13.9309 6.53002C13.9876 6.55402 14.0433 6.58074 14.1005 6.60519C14.1268 6.61696 14.1544 6.62874 14.1807 6.64096C13.9767 6.78632 13.7726 6.93168 13.5641 7.08111C13.4199 7.18028 13.2834 7.29394 13.1424 7.40217C13.0018 7.51221 12.8603 7.6227 12.7175 7.73455C11.5902 8.64202 10.4616 9.69757 9.40782 10.9342C9.27949 11.0918 9.15026 11.2494 9.02012 11.4088C8.95438 11.4885 8.88999 11.5682 8.82424 11.6484C8.7603 11.7299 8.69954 11.8141 8.63651 11.8974C8.61067 11.9323 8.58437 11.9676 8.55807 12.0029C8.52859 11.9907 8.49549 11.9762 8.46602 11.964C7.63849 11.6298 6.9021 11.3635 6.2759 11.1543C7.68791 9.03689 9.44454 7.16896 11.466 5.62934ZM17.7729 2.239C18.4413 2.42285 19.1491 2.6384 19.8868 2.8956C20.148 2.98617 20.4074 3.07991 20.6654 3.17591C20.1943 3.367 19.7041 3.5753 19.1949 3.8067C19.0716 3.86149 18.9473 3.91764 18.8208 3.97425C18.6975 4.03447 18.5714 4.09606 18.4454 4.15809C18.1923 4.28262 17.9348 4.41032 17.6718 4.54028C17.4115 4.67613 17.1503 4.82149 16.881 4.9664C16.7472 5.0393 16.6121 5.11266 16.4752 5.18783C16.3418 5.26662 16.2072 5.34723 16.0716 5.42828C15.9351 5.50889 15.7977 5.5913 15.6599 5.67417C15.5383 5.74572 15.4164 5.82043 15.2971 5.89832C15.2445 5.88066 15.191 5.86164 15.1389 5.84398C14.8636 5.7516 14.5934 5.6624 14.3286 5.57772C13.5672 5.36262 12.8472 5.20413 12.1901 5.10225C13.8951 3.90587 15.7701 2.93726 17.7729 2.239ZM17.0732 8.00851C17.2066 8.07462 17.3399 8.14119 17.4727 8.20685C17.6056 8.27296 17.7398 8.33545 17.8686 8.40926C18.1284 8.551 18.3882 8.69002 18.6458 8.82632C18.7755 8.89379 18.9038 8.96126 19.0312 9.02783C19.0951 9.06089 19.1586 9.09394 19.2226 9.127C19.2865 9.1596 19.3468 9.19764 19.4094 9.23206C19.4642 9.2633 19.5164 9.29274 19.5717 9.32353C18.892 9.80217 18.1352 10.3641 17.3022 11.0488C16.6624 11.5845 15.9755 12.1795 15.2785 12.8656C14.7643 13.3673 14.2361 13.9107 13.7087 14.5044C13.6153 14.4518 13.5214 14.3998 13.4289 14.3481C13.2022 14.2236 12.9782 14.1 12.7574 13.9782C12.5343 13.8613 12.3135 13.7459 12.0954 13.6322C11.9861 13.5756 11.8782 13.5199 11.7698 13.4642C11.6619 13.4108 11.554 13.3578 11.4474 13.3044C11.2329 13.1998 11.0225 13.0947 10.8144 12.996C10.4303 12.8148 10.0603 12.6468 9.69802 12.4875L9.75515 12.4082L9.85264 12.2846L10.0458 12.0396L10.2381 11.7951C10.3015 11.7136 10.365 11.6311 10.4335 11.5542C11.4946 10.2831 12.6608 9.1424 13.8661 8.143C14.3104 7.77394 14.7602 7.43024 15.2105 7.09832C15.3166 7.14949 15.4232 7.20111 15.5311 7.25319C15.7782 7.37183 16.0326 7.49092 16.292 7.61047C16.5482 7.74043 16.8084 7.87357 17.0732 8.00851ZM9.25183 21.1981C8.1545 20.6008 7.09164 20.105 6.08092 19.7155C6.10631 19.6254 6.13125 19.5348 6.15936 19.4452L6.25232 19.1613C6.31625 18.9715 6.37339 18.7786 6.44276 18.5893C6.51259 18.4001 6.58288 18.2099 6.65271 18.0183L6.70576 17.8748L6.76425 17.7335C6.80325 17.6384 6.84179 17.5438 6.88124 17.4482C6.95878 17.258 7.03496 17.0656 7.12429 16.8781C7.20999 16.6893 7.29614 16.4991 7.3832 16.3084C7.47752 16.1214 7.57183 15.933 7.6666 15.7442C7.71467 15.6505 7.7591 15.554 7.81034 15.4621L7.96406 15.185L8.11732 14.9074C8.16811 14.815 8.21708 14.7217 8.27376 14.633C8.38349 14.4523 8.49232 14.2725 8.60114 14.0927L8.68322 13.9573L8.76937 13.826L8.94395 13.5634L9.11761 13.3012L9.2015 13.1744C10.3093 13.8179 11.5499 14.5773 12.898 15.4616C11.5993 17.0533 10.3156 18.9552 9.25183 21.1981ZM7.7056 25.2496C7.34012 26.5202 7.07169 27.7795 6.90165 28.9958C6.89893 29.0144 6.89711 29.0325 6.89439 29.0515C6.24914 28.7115 5.6234 28.4144 5.02712 28.1658C5.02576 28.1255 5.0244 28.0847 5.02349 28.0444C5.02259 27.9629 5.02213 27.8814 5.02168 27.7994C5.01987 27.636 5.01805 27.4707 5.01669 27.3041C5.01896 27.1379 5.02213 26.9703 5.02395 26.8014C5.02576 26.7167 5.02667 26.6325 5.02848 26.5469C5.0312 26.4618 5.03528 26.3767 5.03846 26.2915C5.04526 26.1199 5.05251 25.9474 5.05931 25.7735C5.0711 25.6014 5.08244 25.4262 5.09468 25.2505C5.10012 25.1626 5.10647 25.0748 5.11237 24.986C5.12053 24.8982 5.1296 24.8094 5.13731 24.7207C5.1958 24.0088 5.29919 23.2829 5.42116 22.5439C5.45562 22.3596 5.48918 22.1739 5.52364 21.9878C5.55538 21.8008 5.60254 21.6161 5.64108 21.4286C5.70819 21.0917 5.79842 20.7561 5.88322 20.417C6.02197 20.4849 6.15891 20.5505 6.29993 20.623C7.10887 21.0392 7.96043 21.5364 8.84238 22.1001C8.39301 23.1412 8.01484 24.1995 7.7056 25.2496ZM12.4386 24.65C12.9469 25.0453 13.4629 25.4606 13.9826 25.8921C13.954 25.9351 13.9245 25.9736 13.896 26.0167C13.5963 26.4731 13.2906 26.9223 13.0127 27.3833C12.8707 27.6124 12.7311 27.8407 12.5919 28.0675C12.4581 28.298 12.3253 28.5271 12.1938 28.7545C12.128 28.8686 12.0632 28.9818 11.9974 29.095C11.9358 29.21 11.8727 29.3241 11.8106 29.4378C11.6877 29.666 11.5653 29.892 11.4442 30.1161C11.3281 30.343 11.2134 30.5681 11.0996 30.7917C11.0434 30.9031 10.9872 31.0136 10.9314 31.1241C10.8783 31.236 10.8244 31.3469 10.7718 31.4574C10.7681 31.4656 10.7645 31.4728 10.7609 31.481C10.1632 31.0467 9.56652 30.631 8.97569 30.257C8.62744 30.0364 8.28192 29.8286 7.93957 29.6298C7.98446 29.3875 8.02074 29.1521 8.07153 28.9048C8.29734 27.8262 8.59026 26.7013 8.96526 25.548C9.25591 24.6641 9.59101 23.7616 9.98097 22.8523C10.779 23.3998 11.5998 23.9993 12.4386 24.65ZM13.073 34.9741C13.3079 35.1928 13.5341 35.4174 13.7631 35.6402C13.0109 36.3068 12.3071 36.9317 11.6823 37.4877C11.2724 37.8527 10.8937 38.1901 10.5514 38.4967C10.4063 38.3486 10.2639 38.2 10.1075 38.0547C9.79234 37.7631 9.46314 37.4959 9.12895 37.2414C9.30897 36.8529 9.50712 36.4367 9.72568 35.9943C10.1292 35.1724 10.6099 34.2577 11.1508 33.2778C11.7857 33.8112 12.4268 34.3714 13.073 34.9741ZM19.2702 40.2387C19.3219 40.221 19.3726 40.2034 19.4234 40.1857C19.4742 40.1662 19.5245 40.1463 19.5753 40.1268C19.6769 40.087 19.7789 40.0471 19.8809 40.0073C20.085 39.9258 20.2936 39.8484 20.4994 39.7591C20.7044 39.6686 20.9107 39.5767 21.1188 39.4843C22.452 38.8784 23.7103 38.1566 24.8566 37.399C25.0497 37.6698 25.2397 37.9401 25.4234 38.21C25.9135 38.9314 26.3638 39.6496 26.7801 40.3605C25.076 40.951 23.0029 41.5596 20.5729 41.992C20.3235 42.0319 20.0768 42.0681 19.8297 42.1053C19.5885 41.5428 19.2978 40.9533 18.9577 40.3456C19.0616 40.3098 19.165 40.2749 19.2702 40.2387ZM27.643 41.9259C27.8787 42.3869 28.0896 42.8397 28.2873 43.2867C26.5007 43.8754 24.2571 44.3613 21.6031 44.4496C21.2762 44.4604 20.952 44.4609 20.6282 44.4609C20.5366 44.0927 20.416 43.6947 20.2754 43.2813C20.4459 43.2559 20.6124 43.2382 20.7847 43.2088C22.5055 42.9059 24.1705 42.4041 25.6474 41.8118C25.8319 41.738 26.0142 41.6637 26.1951 41.5918C26.3742 41.517 26.5474 41.4337 26.7207 41.3567C26.8884 41.2798 27.0544 41.2041 27.2181 41.129C27.3645 41.3957 27.5078 41.6619 27.643 41.9259ZM29.9197 46.1219C29.7837 45.357 29.5873 44.5324 29.3071 43.658C29.8041 43.4085 30.2607 43.1504 30.6701 42.8968C31.7153 42.2542 32.4599 41.6348 32.902 41.2485C33.3359 40.8505 33.481 40.6951 33.2602 40.864C33.1491 40.9478 32.9922 41.0601 32.7877 41.1924C32.5805 41.3205 32.3324 41.479 32.0305 41.6443C31.4328 41.9816 30.6447 42.3806 29.6703 42.7818C29.4853 42.8574 29.2862 42.9321 29.0872 43.0068C28.8228 42.2574 28.5027 41.4772 28.1272 40.673C28.2964 40.5851 28.4705 40.495 28.6333 40.4117C28.9185 40.2468 29.1919 40.0897 29.4526 39.9403C29.5819 39.8647 29.7079 39.7913 29.8308 39.7193C29.9501 39.6428 30.0661 39.5685 30.1786 39.497C30.4017 39.3525 30.6107 39.2176 30.8039 39.093C30.8991 39.0296 30.9925 38.9717 31.0778 38.9105C31.1626 38.8494 31.2442 38.7914 31.3208 38.7357C31.4736 38.6248 31.6083 38.5265 31.7257 38.4405C32.1901 38.0968 32.3483 37.9578 32.113 38.0977C31.8763 38.2372 31.4433 38.4545 30.8316 38.7453C30.5214 38.8811 30.1673 39.0369 29.7705 39.2108C29.5746 39.3018 29.3592 39.3801 29.138 39.4707C28.9171 39.5604 28.6854 39.6541 28.4428 39.7519C28.2374 39.8307 28.0193 39.9127 27.7985 39.9946C27.3178 39.0314 26.7628 38.0393 26.1198 37.0268C26.0478 36.9127 25.9693 36.7967 25.8949 36.6817C26.4885 36.2497 27.0567 35.8245 27.5654 35.3975C28.1463 34.9351 28.6546 34.4638 29.1207 34.0471C29.2382 33.9439 29.3479 33.8379 29.4536 33.7347C29.5601 33.6314 29.663 33.5309 29.7623 33.434C29.961 33.2397 30.146 33.0568 30.3164 32.8893C30.6515 32.5478 30.9182 32.2508 31.1218 32.028C31.5262 31.5797 31.6586 31.4017 31.4437 31.5914C31.2297 31.7807 30.8207 32.081 30.2475 32.4958C29.6608 32.8938 28.9149 33.4145 27.993 33.9996C27.8787 34.0743 27.7622 34.1504 27.643 34.2283C27.5246 34.3053 27.3986 34.3791 27.2739 34.4574C27.0236 34.6132 26.7637 34.7744 26.4944 34.9428C26.3615 35.0289 26.221 35.1081 26.0799 35.1914C25.9389 35.2748 25.7961 35.3594 25.651 35.4459C25.5141 35.5279 25.3739 35.6117 25.2334 35.6959C24.9885 35.3418 24.7305 34.9859 24.4661 34.629C24.0259 34.6793 23.5765 34.7065 23.1217 34.7065C23.0079 34.7065 22.8895 34.6965 22.7744 34.6938C23.2251 35.2417 23.6658 35.7919 24.0834 36.3439C23.0065 36.943 21.8226 37.5597 20.5121 38.1561C20.3135 38.2458 20.1163 38.3354 19.919 38.4247C19.7222 38.5121 19.5218 38.5913 19.3255 38.6755C18.9564 38.8376 18.5841 38.9767 18.2173 39.1202C18.0935 38.9296 17.9652 38.738 17.8314 38.5456C17.1703 37.5924 16.3854 36.6165 15.4817 35.6411C16.2303 35.0868 17.0225 34.4805 17.8455 33.8266L17.2641 33.6668L17.2587 32.9268C17.2578 32.7987 17.2551 32.6778 17.2528 32.5542C16.3613 33.3403 15.4989 34.1033 14.689 34.8201C14.4387 34.5697 14.1839 34.3202 13.9177 34.072C13.2104 33.4118 12.4803 32.7987 11.7444 32.2218C11.8206 32.0887 11.8913 31.961 11.9693 31.826C12.8653 30.2832 13.9146 28.6077 15.1012 26.8422C16.0281 27.6473 16.968 28.5122 17.9112 29.4283L18.561 29.7389C19.4647 30.1714 20.2832 30.4793 20.9937 30.6532C21.1606 30.6939 21.327 30.7293 21.4916 30.7605C22.7499 29.6398 23.956 28.4927 25.0688 27.3702C24.9187 27.2176 24.7273 27.0333 24.4798 26.8073C24.3768 26.714 24.258 26.6071 24.1401 26.5007C22.9911 27.5087 21.7319 28.6141 20.3657 29.8127C20.3512 29.7978 20.3371 29.7824 20.3226 29.7674C18.8915 28.298 17.3934 26.9386 15.8802 25.7074C16.9268 24.2053 17.9996 22.7717 19.0317 21.4567C18.8875 21.2212 18.7591 20.9916 18.6653 20.7788C18.6 20.6298 18.5433 20.4708 18.493 20.306C18.1851 20.628 17.8736 20.959 17.5543 21.3163C16.6438 22.341 15.6916 23.5021 14.7439 24.8076C14.1204 24.3294 13.496 23.8734 12.8753 23.4432C12.0509 22.8718 11.2316 22.3487 10.4244 21.8687C11.3925 19.7902 12.5914 17.8417 13.8688 16.1128C15.1955 17.0162 16.5962 18.0292 18.0477 19.1617C18.1361 19.231 18.2223 19.3025 18.3098 19.3727C18.2826 19.1178 18.2662 18.861 18.2753 18.6034C18.2871 18.2638 18.3433 17.9336 18.4191 17.6076C18.3674 17.5682 18.3157 17.5288 18.2644 17.4899C18.1502 17.4029 18.0368 17.3151 17.9212 17.2308C17.8046 17.1484 17.689 17.0651 17.5734 16.9822C17.3417 16.8174 17.1104 16.6539 16.881 16.4909C16.647 16.3347 16.4153 16.1785 16.184 16.0241C16.068 15.9471 15.9528 15.8705 15.8376 15.7945C15.7211 15.7207 15.6045 15.6478 15.4889 15.5748C15.2568 15.4299 15.0264 15.2859 14.7983 15.1433C14.7557 15.1179 14.7144 15.0935 14.6718 15.0686C15.3039 14.2752 15.9451 13.5335 16.5745 12.8529C16.7626 12.6545 16.9413 12.4535 17.1272 12.2656C17.3122 12.0772 17.4936 11.8915 17.6709 11.7099C17.8509 11.5297 18.0314 11.3581 18.205 11.1878C18.2916 11.1022 18.3778 11.018 18.4626 10.9352C18.5496 10.8541 18.6358 10.7739 18.721 10.6952C19.1668 10.2763 19.5871 9.89862 19.9793 9.55447C20.0329 9.58436 20.0882 9.6156 20.1408 9.64549C20.3829 9.77817 20.6182 9.90813 20.8486 10.0354C21.078 10.1649 21.2948 10.3007 21.5102 10.4248C21.9378 10.6775 22.34 10.9089 22.7077 11.1163C24.1388 12.0025 25.0198 12.4802 24.7092 12.2438C24.5541 12.1261 24.3038 11.8879 23.9547 11.5505C23.7801 11.3816 23.5792 11.1887 23.3552 10.9727C23.2414 10.8659 23.1262 10.7477 22.9961 10.6354C22.8655 10.5226 22.7286 10.4044 22.5862 10.2813C22.2996 10.0363 21.9863 9.77183 21.6448 9.49107C21.5587 9.42179 21.4739 9.34798 21.3827 9.28051C21.2907 9.21258 21.1968 9.14375 21.1021 9.07402C21.0037 9.00156 20.8976 8.92594 20.7955 8.85213C21.2386 8.47855 21.6226 8.16474 21.921 7.91975C22.6279 7.35508 22.8759 7.13228 22.52 7.37817C22.3427 7.50089 22.091 7.66119 21.7695 7.86089C21.6095 7.96096 21.4358 8.07689 21.2426 8.20006C21.0513 8.32504 20.8391 8.45545 20.6178 8.60534C20.5915 8.623 20.5598 8.64474 20.533 8.66285C20.5248 8.65741 20.5171 8.65198 20.5094 8.64609C20.3049 8.50028 20.0932 8.35175 19.8741 8.20006C19.6511 8.0556 19.4162 7.91432 19.1763 7.76806C18.9364 7.62225 18.6889 7.47508 18.4345 7.32609C18.3084 7.24911 18.1737 7.18345 18.0395 7.11372C17.9049 7.04489 17.7684 6.97606 17.6305 6.90587C17.353 6.76821 17.0796 6.62783 16.8025 6.50104C16.6447 6.43402 16.4901 6.37108 16.3341 6.30587C16.7309 6.03915 17.1267 5.78059 17.5185 5.53968C18.7256 4.79885 19.8927 4.1667 20.9769 3.6473C21.1161 3.57938 21.2494 3.51734 21.3855 3.45259C21.8892 3.65183 22.379 3.85742 22.8455 4.06572C22.9607 4.11598 23.075 4.16715 23.1879 4.21651C23.299 4.26904 23.4096 4.32066 23.5185 4.37228C23.7357 4.47553 23.9515 4.57017 24.1533 4.67477C24.3578 4.77485 24.5555 4.87221 24.7455 4.96594C24.9332 5.06376 25.1132 5.15749 25.2846 5.24625C25.9702 5.60443 26.5098 5.90285 26.8426 6.08308C27.1773 6.26149 27.3092 6.31402 27.1641 6.20806C27.0186 6.103 26.785 5.88745 26.4536 5.58496C26.2844 5.43825 26.0904 5.27025 25.8736 5.08232C25.6551 4.89485 25.4034 4.70013 25.1295 4.48277C24.5718 4.06436 23.9039 3.58526 23.0918 3.12791C22.9453 3.04413 22.7893 2.96172 22.6338 2.8793C24.0531 2.25304 25.2311 1.81289 26.031 1.5104C27.1315 1.11236 27.5291 0.950246 26.9941 1.11417C26.7266 1.19659 26.3547 1.30028 25.8822 1.42798C25.6442 1.48776 25.3871 1.57062 25.1032 1.65304C24.8185 1.73636 24.5101 1.82693 24.1778 1.92474C23.5701 2.1181 22.8791 2.34542 22.1223 2.61938C21.5519 2.33953 20.9338 2.07145 20.255 1.83462C20.0718 1.77123 19.8887 1.71281 19.7046 1.65666C21.4975 1.20564 23.3729 0.963378 25.3059 0.963378C31.5834 0.963378 37.2591 3.48202 41.3936 7.56836C37.0247 2.91915 30.8288 -0.000244141 23.9379 -0.000244141C10.7124 -0.000244141 -0.000183105 10.7096 -0.000183105 23.916C-0.000183105 37.1201 10.7124 47.8231 23.9379 47.8231C32.5116 47.8231 40.002 43.3184 44.2344 36.5653C40.956 41.4034 35.8584 44.9074 29.9197 46.1219Z" fill="#76787A"/>
</g>
</g>
<defs>
<clipPath id="clip0_101_472">
<rect width="112" height="48" fill="white"/>
</clipPath>
</defs>
</svg>
