<svg width="48" height="54" viewBox="0 0 48 54" fill="none" xmlns="http://www.w3.org/2000/svg">
<path d="M47.1361 9.16098C42.8727 9.16098 39.4189 5.70713 39.4189 1.44378V0.580322H8.81997V1.44378C8.81997 5.70713 5.36612 9.16098 1.10278 9.16098H0.239319V18.9829C0.239319 26.4302 2.50591 33.5538 6.71528 39.652C10.9247 45.7502 16.861 50.3373 23.7687 52.9277H23.8226L24.0925 53.0356L24.4163 52.9277C31.3779 50.3913 37.3142 45.7502 41.5236 39.7059C45.733 33.6077 47.9996 26.4302 47.9996 19.0368V9.16098H47.1361ZM46.2187 18.9829C46.2187 26.0524 44.06 32.8522 40.0665 38.6806C36.1809 44.2931 30.7303 48.6104 24.3623 51.0928L24.0925 51.2008L23.8226 51.0928C17.4546 48.6104 12.004 44.2931 8.11841 38.6806C4.07093 32.8522 1.96624 26.0524 1.96624 18.9829V10.8879L2.55987 10.78C6.60735 10.1324 9.79137 6.94835 10.439 2.90088L10.5469 2.30725H37.638L37.7459 2.90088C38.3935 6.94835 41.5236 10.1324 45.625 10.78L46.2187 10.8879V18.9829Z" fill="#0066B2"/>
<path d="M36.6664 21.1955L31.4856 16.0147C31.3237 15.8528 31.1079 15.8528 30.946 16.0147L21.232 25.6747C20.9082 25.9985 20.4765 25.9985 20.1527 25.6747L17.3464 22.8685C17.2925 22.8145 17.1845 22.7605 17.0766 22.7605C16.9687 22.7605 16.8607 22.8145 16.8068 22.8685L11.626 28.0492C11.4641 28.2111 11.4641 28.427 11.626 28.5889L20.4765 37.4394C20.6384 37.6013 20.8543 37.6013 21.0162 37.4394L36.6664 21.7352C36.7204 21.6812 36.7743 21.5733 36.7743 21.4653C36.7743 21.3574 36.7204 21.3034 36.6664 21.1955ZM20.6923 35.2268L13.8386 28.3191L17.0766 25.0811L20.4765 28.481C20.6384 28.6429 20.8543 28.6429 21.0162 28.481L31.2158 18.2274L34.4538 21.4653L20.6923 35.2268Z" fill="#0066B2"/>
</svg>
